# xmcd
#
# Track frame offsets:
#	150
#	1829
#	14565
#	27824
#	44763
#	59388
#	73476
#	87879
#	102019
#
# Disc length: 1728 seconds
#
# Revision: 0
# Processed by: cddbd v1.5.2PL0 Copyright (c) Steve Scherf et al.
# Submitted via: audiograbber 1.83.01
#
DISCID=7206be09
DTITLE=aap futü - hinger minger britz
DYEAR=2011
DGENRE=kölsch
TTITLE0=aap futü
TTITLE1=hinger minger britz
TTITLE2=tünnes
TTITLE3=ich ben schön
TTITLE4=mett wör nettjevv dir nedäu
TTITLE5=jevv dir ne däu un danz
TTITLE6=jeck em rään
TTITLE7=et schlofleed
TTITLE8=och wat wohr dat fröher schön doch en colonia
EXTD=
EXTT0=
EXTT1=
EXTT2=
EXTT3=
EXTT4=
EXTT5=
EXTT6=
EXTT7=
EXTT8=
PLAYORDER=
